<?xml version="1.0" standalone="no"?>
<!DOCTYPE svg PUBLIC "-//W3C//DTD SVG 20010904//EN"
 "http://www.w3.org/TR/2001/REC-SVG-20010904/DTD/svg10.dtd">
<svg version="1.0" xmlns="http://www.w3.org/2000/svg"
 width="300.000000pt" height="300.000000pt" viewBox="0 0 300.000000 300.000000"
 preserveAspectRatio="xMidYMid meet">
<g transform="translate(0.000000,300.000000) scale(0.100000,-0.100000)"
fill="#ffffff" stroke="none">
<path d="M20 2985 c0 0 -1 -669 -3 -1488 l-2 -1487 1488 0 1487 0 0 1488 0
1487 -1485 0 c-817 0 -1485 0 -1485 0z m2928 -1492 l-3 -1448 -1439 -3 c-1145
-2 -1441 0 -1448 10 -9 15 -11 2848 -2 2872 6 15 143 16 1450 16 l1444 0 -2
-1447z"/>
<path d="M1005 2061 c-48 -20 -47 -10 -47 -546 0 -453 2 -508 16 -530 17 -25
19 -26 129 -23 l111 3 23 40 c12 22 23 33 23 25 0 -8 11 -27 25 -42 l25 -27
300 -1 c340 0 355 3 416 73 57 68 77 151 72 305 -4 124 -13 162 -50 213 -9 13
-5 28 17 72 26 54 27 62 23 169 -5 153 -36 212 -133 255 -57 25 -350 32 -394
10 -28 -14 -34 -14 -62 0 -47 23 -188 15 -227 -14 l-29 -21 -22 21 c-18 19
-34 22 -109 24 -48 2 -96 -1 -107 -6z m197 -246 c0 -145 2 -198 8 -170 5 22
26 118 46 213 l38 172 101 0 c56 0 104 -2 106 -4 3 -3 -21 -111 -53 -240 l-58
-236 65 -258 c35 -142 67 -266 71 -275 5 -15 -5 -17 -104 -17 -97 0 -111 2
-116 18 -2 9 -23 105 -46 212 -23 107 -46 209 -50 225 -5 18 -8 -65 -7 -213
l2 -242 -105 0 -105 0 2 512 c2 282 3 514 3 516 0 1 45 1 101 0 l101 -3 0
-210z m754 188 c23 -13 53 -39 65 -60 22 -35 24 -49 24 -165 0 -139 -10 -167
-69 -196 l-27 -14 32 -16 c45 -23 66 -63 79 -150 25 -159 -24 -334 -105 -379
-37 -21 -53 -23 -217 -23 l-178 0 0 516 0 516 178 -4 c159 -3 181 -6 218 -25z
m-436 -447 c0 -173 -4 -277 -10 -281 -5 -3 -10 -4 -10 -1 0 3 -16 66 -35 139
l-35 132 25 105 c14 58 30 122 36 143 22 84 29 31 29 -237z"/>
<path d="M1760 1751 l0 -111 35 0 c43 0 47 13 43 130 l-3 85 -37 3 -38 3 0
-110z"/>
<path d="M1760 1332 c0 -83 3 -153 8 -155 16 -9 72 15 83 34 6 13 9 61 7 125
-3 114 -10 129 -66 140 l-32 7 0 -151z"/>
</g>
</svg>
